{"title":"Dum Laga Ke Haisha (2015) - BRRip - 720p - x264 - AC3 5.1 -={SPA","uid":11873705,"size":1198629610,"categoryP":"video","categoryS":"other","magnet":"?xt=urn:btih:e4dc6551c2d255130229bda040baff4c826bbb85&amp;dn=Dum+Laga+Ke+Haisha+%282015%29+-+BRRip+-+720p+-+x264+-+AC3+5.1+-%3D%7BSPA&amp;tr=udp%3A%2F%2Ftracker.openbittorrent.com%3A80&amp;tr=udp%3A%2F%2Fopen.demonii.com%3A1337&amp;tr=udp%3A%2F%2Ftracker.coppersurfer.tk%3A6969&amp;tr=udp%3A%2F%2Fexodus.desync.com%3A6969","seeders":4,"leechers":3,"uploader":"juggs99","files":3,"time":1430490474,"description":"Dum Laga Ke Haisha (2015) - BRRip - 720p - x264 - AC3 5.1 -={SPARROW}=-\n &lt;a href=&quot;\nhttp://imgsparrow.co/image/Jt&quot; rel=&quot;nofollow&quot; target=&quot;_NEW&quot;&gt;\nhttp://imgsparrow.co/image/Jt&lt;/a&gt;\n\nInfo : - \n\nSOURCE : Team Telly (Thanks)\nSample Within Torrent\n\nFormat                      : Matroska\nFormat version              : Version 2\nFile size                   : 1.10 GiB\nDuration                    : 1h 50mn\nOverall bit rate            : 1 427 Kbps\nWriting application         : HandBrake 0.10.0 2014112200\nWriting library             : Lavf55.12.0\n\nVideo\nID                          : 1\nFormat                      : AVC\nFormat/Info                 : Advanced Video Codec\nFormat profile              : &lt;a class=&quot;__cf_email__&quot; href=&quot;/cdn-cgi/l/email-protection&quot; data-cfemail=&quot;632e020a0d232f574d52&quot;&gt;[email&amp;#160;protected]&lt;/a&gt;&lt;script cf-hash='f9e31' type=&quot;text/javascript&quot;&gt;\n/* &lt;![CDATA[ */!function(){try{var t=&quot;currentScript&quot;in document?document.currentScript:function(){for(var t=document.getElementsByTagName(&quot;script&quot;),e=t.length;e--;)if(t[e].getAttribute(&quot;cf-hash&quot;))return t[e]}();if(t&amp;&amp;t.previousSibling){var e,r,n,i,c=t.previousSibling,a=c.getAttribute(&quot;data-cfemail&quot;);if(a){for(e=&quot;&quot;,r=parseInt(a.substr(0,2),16),n=2;a.length-n;n+=2)i=parseInt(a.substr(n,2),16)^r,e+=String.fromCharCode(i);e=document.createTextNode(e),c.parentNode.replaceChild(e,c)}}}catch(u){}}();/* ]]&gt; */&lt;/script&gt;\nFormat settings, CABAC      : Yes\nFormat settings, ReFrames   : 4 frames\nCodec ID                    : V_MPEG4/ISO/AVC\nDuration                    : 1h 50mn\nBit rate                    : 1 200 Kbps\nWidth                       : 1 280 pixels\nHeight                      : 544 pixels\nDisplay aspect ratio        : 2.40:1\nOriginal display aspect rat : 2.40:1\nFrame rate mode             : Constant\nFrame rate                  : 24.000 fps\nColor space                 : YUV\nChroma subsampling          : 4:2:0\nBit depth                   : 8 bits\nScan type                   : Progressive\nBits/(Pixel*Frame)          : 0.072\nStream size                 : 926 MiB (82%)\nWriting library             : x264 core 142 r2479 dd79a61\nDefault                     : Yes\nForced                      : No\nColor primaries             : BT.709\nTransfer characteristics    : BT.709\nMatrix coefficients         : BT.709\nColor range                 : Limited\n\nAudio\nID                          : 2\nFormat                      : AC-3\nFormat/Info                 : Audio Coding 3\nMode extension              : CM (complete main)\nFormat settings, Endianness : Big\nCodec ID                    : A_AC3\nDuration                    : 1h 50mn\nBit rate mode               : Constant\nBit rate                    : 224 Kbps\nChannel(s)                  : 6 channels\nChannel positions           : Front: L C R, Side: L R, LFE\nSampling rate               : 48.0 KHz\nBit depth                   : 16 bits\nCompression mode            : Lossy\nDelay relative to video     : 27ms\nStream size                 : 177 MiB (16%)\nTitle                       : Surround\nLanguage                    : Hindi\nDefault                     : Yes\nForced                      : No\n\nMenu\n00:00:00.000                : :Chapter 1\n00:03:04.708                : :Chapter 2\n00:08:38.042                : :Chapter 3\n00:10:52.833                : :Chapter 4\n00:16:02.417                : :Chapter 5\n00:21:21.167                : :Chapter 6\n00:31:05.583                : :Chapter 7\n00:39:29.833                : :Chapter 8\n00:42:06.292                : :Chapter 9\n00:48:42.542                : :Chapter 10\n00:54:01.333                : :Chapter 11\n01:03:46.792                : :Chapter 12\n01:07:08.292                : :Chapter 13\n01:13:59.542                : :Chapter 14\n01:16:40.792                : :Chapter 15\n01:20:33.625                : :Chapter 16\n01:30:47.167                : :Chapter 17\n01:38:24.958                : :Chapter 18\n01:43:26.917                : :Chapter 19\n01:45:39.250                : :Chapter 20\n\nScreens : - \n &lt;a href=&quot;\nhttp://imgsparrow.co/image/ER&quot; rel=&quot;nofollow&quot; target=&quot;_NEW&quot;&gt;\nhttp://imgsparrow.co/image/ER&lt;/a&gt; &lt;a href=&quot;\nhttp://imgsparrow.co/image/Ev&quot; rel=&quot;nofollow&quot; target=&quot;_NEW&quot;&gt;\nhttp://imgsparrow.co/image/Ev&lt;/a&gt; &lt;a href=&quot;\nhttp://imgsparrow.co/image/Ex&quot; rel=&quot;nofollow&quot; target=&quot;_NEW&quot;&gt;\nhttp://imgsparrow.co/image/Ex&lt;/a&gt; &lt;a href=&quot;\nhttp://imgsparrow.co/image/EC&quot; rel=&quot;nofollow&quot; target=&quot;_NEW&quot;&gt;\nhttp://imgsparrow.co/image/EC&lt;/a&gt; &lt;a href=&quot;\nhttp://imgsparrow.co/image/E1&quot; rel=&quot;nofollow&quot; target=&quot;_NEW&quot;&gt;\nhttp://imgsparrow.co/image/E1&lt;/a&gt; &lt;a href=&quot;\nhttp://imgsparrow.co/image/J6&quot; rel=&quot;nofollow&quot; target=&quot;_NEW&quot;&gt;\nhttp://imgsparrow.co/image/J6&lt;/a&gt; &lt;a href=&quot;\nhttp://imgsparrow.co/image/J8&quot; rel=&quot;nofollow&quot; target=&quot;_NEW&quot;&gt;\nhttp://imgsparrow.co/image/J8&lt;/a&gt; &lt;a href=&quot;\nhttp://imgsparrow.co/image/J9&quot; rel=&quot;nofollow&quot; target=&quot;_NEW&quot;&gt;\nhttp://imgsparrow.co/image/J9&lt;/a&gt; &lt;a href=&quot;\nhttp://imgsparrow.co/image/JL&quot; rel=&quot;nofollow&quot; target=&quot;_NEW&quot;&gt;\nhttp://imgsparrow.co/image/JL&lt;/a&gt; &lt;a href=&quot;\nhttp://imgsparrow.co/image/JN&quot; rel=&quot;nofollow&quot; target=&quot;_NEW&quot;&gt;\nhttp://imgsparrow.co/image/JN&lt;/a&gt;\n &lt;a href=&quot;\nhttp://imgsparrow.co/image/N2&quot; rel=&quot;nofollow&quot; target=&quot;_NEW&quot;&gt;\nhttp://imgsparrow.co/image/N2&lt;/a&gt;","torrent":{"xt":"urn:btih:e4dc6551c2d255130229bda040baff4c826bbb85","amp;dn":"Dum+Laga+Ke+Haisha+%282015%29+-+BRRip+-+720p+-+x264+-+AC3+5.1+-%3D%7BSPA","amp;tr":["udp%3A%2F%2Ftracker.openbittorrent.com%3A80","udp%3A%2F%2Fopen.demonii.com%3A1337","udp%3A%2F%2Ftracker.coppersurfer.tk%3A6969","udp%3A%2F%2Fexodus.desync.com%3A6969"],"infoHash":"e4dc6551c2d255130229bda040baff4c826bbb85","infoHashBuffer":{"type":"Buffer","data":[228,220,101,81,194,210,85,19,2,41,189,160,64,186,255,76,130,107,187,133]},"announce":[],"urlList":[]}}